<svg xmlns="http://www.w3.org/2000/svg" width="256" height="256" viewBox="0 0 256 256">
  <!-- transparent background -->
  <rect width="100%" height="100%" fill="none"/>
  <!-- pixel-art NSL, overlapping slightly in grid space -->
  <g shape-rendering="crispEdges">
    <rect x="16" y="32" width="16" height="16" fill="#1A1F36" />
    <rect x="64" y="32" width="16" height="16" fill="#1A1F36" />
    <rect x="16" y="32" width="16" height="16" fill="#1A1F36" />
    <rect x="16" y="48" width="16" height="16" fill="#1A1F36" />
    <rect x="64" y="48" width="16" height="16" fill="#1A1F36" />
    <rect x="16" y="48" width="16" height="16" fill="#1A1F36" />
    <rect x="16" y="64" width="16" height="16" fill="#1A1F36" />
    <rect x="64" y="64" width="16" height="16" fill="#1A1F36" />
    <rect x="32" y="64" width="16" height="16" fill="#1A1F36" />
    <rect x="16" y="80" width="16" height="16" fill="#1A1F36" />
    <rect x="64" y="80" width="16" height="16" fill="#1A1F36" />
    <rect x="32" y="80" width="16" height="16" fill="#1A1F36" />
    <rect x="16" y="96" width="16" height="16" fill="#1A1F36" />
    <rect x="64" y="96" width="16" height="16" fill="#1A1F36" />
    <rect x="32" y="96" width="16" height="16" fill="#1A1F36" />
    <rect x="16" y="112" width="16" height="16" fill="#1A1F36" />
    <rect x="64" y="112" width="16" height="16" fill="#1A1F36" />
    <rect x="32" y="112" width="16" height="16" fill="#1A1F36" />
    <rect x="16" y="128" width="16" height="16" fill="#1A1F36" />
    <rect x="64" y="128" width="16" height="16" fill="#1A1F36" />
    <rect x="48" y="128" width="16" height="16" fill="#1A1F36" />
    <rect x="16" y="144" width="16" height="16" fill="#1A1F36" />
    <rect x="64" y="144" width="16" height="16" fill="#1A1F36" />
    <rect x="48" y="144" width="16" height="16" fill="#1A1F36" />
    <rect x="16" y="160" width="16" height="16" fill="#1A1F36" />
    <rect x="64" y="160" width="16" height="16" fill="#1A1F36" />
    <rect x="48" y="160" width="16" height="16" fill="#1A1F36" />
    <rect x="16" y="176" width="16" height="16" fill="#1A1F36" />
    <rect x="64" y="176" width="16" height="16" fill="#1A1F36" />
    <rect x="48" y="176" width="16" height="16" fill="#1A1F36" />
    <rect x="16" y="192" width="16" height="16" fill="#1A1F36" />
    <rect x="64" y="192" width="16" height="16" fill="#1A1F36" />
    <rect x="64" y="192" width="16" height="16" fill="#1A1F36" />
    <rect x="16" y="208" width="16" height="16" fill="#1A1F36" />
    <rect x="64" y="208" width="16" height="16" fill="#1A1F36" />
    <rect x="64" y="208" width="16" height="16" fill="#1A1F36" />
    <rect x="112" y="48" width="16" height="16" fill="#9C6BFF" />
    <rect x="112" y="128" width="16" height="16" fill="#9C6BFF" />
    <rect x="112" y="208" width="16" height="16" fill="#9C6BFF" />
    <rect x="128" y="48" width="16" height="16" fill="#9C6BFF" />
    <rect x="128" y="128" width="16" height="16" fill="#9C6BFF" />
    <rect x="128" y="208" width="16" height="16" fill="#9C6BFF" />
    <rect x="144" y="48" width="16" height="16" fill="#9C6BFF" />
    <rect x="144" y="128" width="16" height="16" fill="#9C6BFF" />
    <rect x="144" y="208" width="16" height="16" fill="#9C6BFF" />
    <rect x="160" y="48" width="16" height="16" fill="#9C6BFF" />
    <rect x="160" y="128" width="16" height="16" fill="#9C6BFF" />
    <rect x="160" y="208" width="16" height="16" fill="#9C6BFF" />
    <rect x="112" y="64" width="16" height="16" fill="#9C6BFF" />
    <rect x="112" y="80" width="16" height="16" fill="#9C6BFF" />
    <rect x="112" y="96" width="16" height="16" fill="#9C6BFF" />
    <rect x="112" y="112" width="16" height="16" fill="#9C6BFF" />
    <rect x="160" y="144" width="16" height="16" fill="#9C6BFF" />
    <rect x="160" y="160" width="16" height="16" fill="#9C6BFF" />
    <rect x="160" y="176" width="16" height="16" fill="#9C6BFF" />
    <rect x="160" y="192" width="16" height="16" fill="#9C6BFF" />
    <rect x="208" y="48" width="16" height="16" fill="#FFFFFF" />
    <rect x="208" y="64" width="16" height="16" fill="#FFFFFF" />
    <rect x="208" y="80" width="16" height="16" fill="#FFFFFF" />
    <rect x="208" y="96" width="16" height="16" fill="#FFFFFF" />
    <rect x="208" y="112" width="16" height="16" fill="#FFFFFF" />
    <rect x="208" y="128" width="16" height="16" fill="#FFFFFF" />
    <rect x="208" y="144" width="16" height="16" fill="#FFFFFF" />
    <rect x="208" y="160" width="16" height="16" fill="#FFFFFF" />
    <rect x="208" y="176" width="16" height="16" fill="#FFFFFF" />
    <rect x="208" y="192" width="16" height="16" fill="#FFFFFF" />
    <rect x="208" y="208" width="16" height="16" fill="#FFFFFF" />
    <rect x="144" y="208" width="16" height="16" fill="#FFFFFF" />
    <rect x="160" y="208" width="16" height="16" fill="#FFFFFF" />
    <rect x="176" y="208" width="16" height="16" fill="#FFFFFF" />
    <rect x="192" y="208" width="16" height="16" fill="#FFFFFF" />
    <rect x="208" y="208" width="16" height="16" fill="#FFFFFF" />
  </g>
</svg>